# xmcd CD database file
#
# Track frame offsets:
#	150
#	38067
#	61457
#	96512
#	138610
#
# Disc length: 2622 seconds
#
# Revision: 5
# Processed by: cddbd v1.5.2PL0 Copyright (c) Steve Scherf et al.
# Submitted via: CDex 2.23
#
DISCID=460a3c05
DTITLE=Lito Vitale - Ese Amigo del Alma
DYEAR=1989
DGENRE=New Age
TTITLE0=Recuerdos en mi bemol
TTITLE1=Estar entre nosotros
TTITLE2=La vida es un tango
TTITLE3=Estar vivo hoy
TTITLE4=Ese amigo del alma
EXTD=YEAR: 1989
EXTT0=
EXTT1=
EXTT2=
EXTT3=
EXTT4=
PLAYORDER=
